<svg width="24" height="24" viewBox="0 0 24 24" fill="none" xmlns="http://www.w3.org/2000/svg">
<path d="M3.79674 19.2032V16.9282H5.72502V10.1315C5.72502 8.69635 6.15264 7.41637 7.00789 6.29155C7.86314 5.16673 8.98135 4.43167 10.3625 4.08637V3.43422C10.3625 2.97936 10.5217 2.59272 10.8401 2.27432C11.1585 1.95591 11.5452 1.7967 12 1.7967C12.4549 1.7967 12.8415 1.95591 13.1599 2.27432C13.4783 2.59272 13.6375 2.97936 13.6375 3.43422V4.08637C15.0227 4.43167 16.1419 5.16573 16.9951 6.28855C17.8484 7.41138 18.275 8.69236 18.275 10.1315V16.9282H20.2033V19.2032H3.79674ZM12.006 22.269C11.4363 22.269 10.9485 22.0667 10.5428 21.6622C10.1371 21.2576 9.93427 20.7713 9.93427 20.2032H14.0718C14.0718 20.7732 13.8695 21.2599 13.4649 21.6636C13.0604 22.0672 12.5741 22.269 12.006 22.269ZM1.58154 10.1375C1.58154 8.39902 1.96751 6.80399 2.73944 5.35237C3.51139 3.90076 4.54788 2.69687 5.84892 1.74072L7.15544 3.52007C6.13153 4.26936 5.31577 5.21827 4.70817 6.36682C4.10055 7.51537 3.79674 8.77226 3.79674 10.1375H1.58154ZM20.2033 10.1375C20.2033 8.77226 19.8995 7.51537 19.2919 6.36682C18.6843 5.21827 17.8685 4.26936 16.8446 3.52007L18.1511 1.74072C19.4522 2.69687 20.4886 3.90076 21.2606 5.35237C22.0325 6.80399 22.4185 8.39902 22.4185 10.1375H20.2033Z" fill="#D6FFCA"/>
</svg>
