<svg width="24" height="24" viewBox="0 0 24 24" fill="none" xmlns="http://www.w3.org/2000/svg">
<path d="M10.95 18.4159L7.33428 14.8061L8.84405 13.2963L10.95 15.4023L15.156 11.1964L16.6658 12.7061L10.95 18.4159ZM5.07178 22.2034C4.44206 22.2034 3.90546 21.9817 3.46198 21.5382C3.01849 21.0947 2.79675 20.5581 2.79675 19.9284V6.0719C2.79675 5.44218 3.01849 4.90558 3.46198 4.4621C3.90546 4.01862 4.44206 3.79688 5.07178 3.79688H6.00003V1.79688H8.13753V3.79688H15.8625V1.79688H18V3.79688H18.9283C19.558 3.79688 20.0946 4.01862 20.5381 4.4621C20.9816 4.90558 21.2033 5.44218 21.2033 6.0719V19.9284C21.2033 20.5581 20.9816 21.0947 20.5381 21.5382C20.0946 21.9817 19.558 22.2034 18.9283 22.2034H5.07178ZM5.07178 19.9284H18.9283V10.0001H5.07178V19.9284Z" fill="#D6FFCA"/>
</svg>
