<svg width="50" height="50" viewBox="0 0 50 50" fill="none" xmlns="http://www.w3.org/2000/svg">
<path opacity="0.5" d="M12.9627 9.58548C13.8889 8.96662 14.8614 8.42987 15.869 7.97862C18.7271 6.69868 20.1561 6.05871 22.0573 7.29037C23.9584 8.52206 23.9584 10.5425 23.9584 14.5833V17.7083C23.9584 21.6366 23.9584 23.6008 25.1788 24.8212C26.3992 26.0416 28.3634 26.0416 32.2917 26.0416H35.4167C39.4575 26.0416 41.4779 26.0416 42.7096 27.9427C43.9413 29.8439 43.3013 31.2729 42.0213 34.131C41.57 35.1387 41.0334 36.1112 40.4146 37.0372C38.2398 40.292 35.1488 42.8287 31.5323 44.3268C27.9159 45.8247 23.9365 46.2166 20.0972 45.4531C16.258 44.6893 12.7315 42.8043 9.96355 40.0364C7.19563 37.2685 5.31065 33.742 4.54698 29.9029C3.78332 26.0635 4.17528 22.0841 5.67325 18.4677C7.17123 14.8512 9.70798 11.7602 12.9627 9.58548Z" fill="#6ABE61"/>
<path d="M44.6792 14.727C42.9879 10.4339 39.5661 7.01198 35.2729 5.32071C32.0615 4.05552 29.1667 6.96484 29.1667 10.4166V18.75C29.1667 19.9005 30.0994 20.8333 31.25 20.8333H39.5834C43.0352 20.8333 45.9444 17.9386 44.6792 14.727Z" fill="#6ABE61"/>
</svg>
