<svg width="24" height="24" viewBox="0 0 24 24" fill="none" xmlns="http://www.w3.org/2000/svg">
<path d="M5.07178 21.2034C4.44206 21.2034 3.90546 20.9817 3.46198 20.5382C3.01849 20.0947 2.79675 19.5581 2.79675 18.9284V15.1376H5.07178V18.9284H18.9283V5.0719H5.07178V8.86265H2.79675V5.0719C2.79675 4.44218 3.01849 3.90558 3.46198 3.4621C3.90546 3.01862 4.44206 2.79688 5.07178 2.79688H18.9283C19.558 2.79688 20.0946 3.01862 20.5381 3.4621C20.9816 3.90558 21.2033 4.44218 21.2033 5.0719V18.9284C21.2033 19.5581 20.9816 20.0947 20.5381 20.5382C20.0946 20.9817 19.558 21.2034 18.9283 21.2034H5.07178ZM10.6076 17.2393L9.01633 15.6039L11.4826 13.1376H2.79675V10.8626H11.4826L9.01633 8.39635L10.6076 6.76102L15.8468 12.0001L10.6076 17.2393Z" fill="#D6FFCA"/>
</svg>
