<svg width="24" height="24" viewBox="0 0 24 24" fill="none" xmlns="http://www.w3.org/2000/svg">
<path d="M19.5881 21.227L13.2462 14.8851C12.7502 15.2692 12.1782 15.5739 11.5302 15.7993C10.8822 16.0246 10.1895 16.1373 9.4522 16.1373C7.59966 16.1373 6.03028 15.4942 4.74405 14.208C3.45781 12.9217 2.8147 11.3523 2.8147 9.49981C2.8147 7.64727 3.45781 6.07789 4.74405 4.79166C6.03028 3.50542 7.59966 2.8623 9.4522 2.8623C11.3047 2.8623 12.8741 3.50542 14.1603 4.79166C15.4466 6.07789 16.0897 7.64727 16.0897 9.49981C16.0897 10.2411 15.977 10.9338 15.7516 11.5778C15.5263 12.2218 15.2216 12.7898 14.8375 13.2819L21.1853 19.6357L19.5881 21.227ZM9.4522 13.8623C10.6663 13.8623 11.6969 13.4388 12.544 12.5917C13.3911 11.7446 13.8147 10.7139 13.8147 9.49981C13.8147 8.28567 13.3911 7.25505 12.544 6.40795C11.6969 5.56085 10.6663 5.1373 9.4522 5.1373C8.23806 5.1373 7.20745 5.56085 6.36035 6.40795C5.51325 7.25505 5.0897 8.28567 5.0897 9.49981C5.0897 10.7139 5.51325 11.7446 6.36035 12.5917C7.20745 13.4388 8.23806 13.8623 9.4522 13.8623Z" fill="#D6FFCA"/>
</svg>
