<svg width="50" height="50" viewBox="0 0 50 50" fill="none" xmlns="http://www.w3.org/2000/svg">
<path opacity="0.5" d="M41.0761 42.4218C44.0479 40.8014 45.8334 38.7237 45.8334 36.4585C45.8334 34.0575 43.8275 31.867 40.5286 30.2085C36.7138 28.2906 31.1702 27.0835 25 27.0835C18.8299 27.0835 13.2862 28.2906 9.4715 30.2085C6.17262 31.867 4.16669 34.0575 4.16669 36.4585C4.16669 38.8595 6.17262 41.05 9.4715 42.7085C13.2862 44.6264 18.8299 45.8335 25 45.8335C31.4721 45.8335 37.2548 44.5054 41.0761 42.4218Z" fill="#6ABE61"/>
<path fill-rule="evenodd" clip-rule="evenodd" d="M10.4167 17.7387C10.4167 10.243 16.9459 4.1665 25 4.1665C33.0542 4.1665 39.5834 10.243 39.5834 17.7387C39.5834 25.1757 34.9288 33.8538 27.6669 36.9573C25.974 37.6807 24.0261 37.6807 22.3331 36.9573C15.0712 33.8538 10.4167 25.1757 10.4167 17.7387ZM25 22.9165C27.3013 22.9165 29.1667 21.0511 29.1667 18.7498C29.1667 16.4486 27.3013 14.5832 25 14.5832C22.6988 14.5832 20.8334 16.4486 20.8334 18.7498C20.8334 21.0511 22.6988 22.9165 25 22.9165Z" fill="#6ABE61"/>
</svg>
