<svg width="24" height="24" viewBox="0 0 24 24" fill="none" xmlns="http://www.w3.org/2000/svg">
<path d="M5.87993 17.0105C6.72993 16.3684 7.67594 15.8639 8.71795 15.4969C9.75999 15.1299 10.854 14.9464 12 14.9464C13.146 14.9464 14.2431 15.1329 15.2911 15.5059C16.3391 15.8789 17.2821 16.3824 18.1201 17.0164C18.6915 16.3291 19.1357 15.5631 19.4528 14.7184C19.7698 13.8736 19.9283 12.9675 19.9283 12.0001C19.9283 9.8074 19.1551 7.93783 17.6087 6.39145C16.0623 4.84508 14.1928 4.0719 12 4.0719C9.80728 4.0719 7.93771 4.84508 6.39133 6.39145C4.84496 7.93783 4.07178 9.8074 4.07178 12.0001C4.07178 12.9635 4.22929 13.8676 4.54433 14.7124C4.85936 15.5571 5.30456 16.3232 5.87993 17.0105ZM12 13.054C11.0007 13.054 10.1596 12.7135 9.47665 12.0325C8.79369 11.3515 8.4522 10.5114 8.4522 9.5121C8.4522 8.51283 8.79369 7.67171 9.47665 6.98873C10.1596 6.30576 11.0007 5.96427 12 5.96427C12.9993 5.96427 13.8404 6.30576 14.5234 6.98873C15.2064 7.67171 15.5479 8.51283 15.5479 9.5121C15.5479 10.5114 15.2064 11.3515 14.5234 12.0325C13.8404 12.7135 12.9993 13.054 12 13.054ZM12 22.2034C10.5888 22.2034 9.26289 21.9359 8.0223 21.401C6.78172 20.866 5.70147 20.1386 4.78155 19.2186C3.86162 18.2987 3.13417 17.2185 2.5992 15.9779C2.06424 14.7373 1.79675 13.4114 1.79675 12.0001C1.79675 10.5889 2.06424 9.26301 2.5992 8.02242C3.13417 6.78184 3.86162 5.70159 4.78155 4.78167C5.70147 3.86174 6.78172 3.13429 8.0223 2.59932C9.26289 2.06436 10.5888 1.79688 12 1.79688C13.4113 1.79688 14.7372 2.06436 15.9778 2.59932C17.2183 3.13429 18.2986 3.86174 19.2185 4.78167C20.1384 5.70159 20.8659 6.78184 21.4009 8.02242C21.9358 9.26301 22.2033 10.5889 22.2033 12.0001C22.2033 13.4114 21.9358 14.7373 21.4009 15.9779C20.8659 17.2185 20.1384 18.2987 19.2185 19.2186C18.2986 20.1386 17.2183 20.866 15.9778 21.401C14.7372 21.9359 13.4113 22.2034 12 22.2034Z" fill="#D6FFCA"/>
</svg>
