<svg width="70" height="70" viewBox="0 0 70 70" fill="none" xmlns="http://www.w3.org/2000/svg">
<path d="M9.60426 27.1043C8.75 27.9586 8.75 29.3335 8.75 32.0833V49.5833C8.75 52.3332 8.75 53.7081 9.60426 54.5624C10.4586 55.4167 11.8335 55.4167 14.5833 55.4167C17.3332 55.4167 18.7081 55.4167 19.5624 54.5624C20.4167 53.7081 20.4167 52.3332 20.4167 49.5833V32.0833C20.4167 29.3335 20.4167 27.9586 19.5624 27.1043C18.7081 26.25 17.3332 26.25 14.5833 26.25C11.8335 26.25 10.4586 26.25 9.60426 27.1043Z" fill="#6ABE61"/>
<path opacity="0.4" d="M50.4376 6.68776C49.5833 7.54205 49.5833 8.91697 49.5833 11.6668V49.5835C49.5833 52.3333 49.5833 53.7082 50.4376 54.5625C51.2919 55.4168 52.6668 55.4168 55.4166 55.4168C58.1665 55.4168 59.5414 55.4168 60.3957 54.5625C61.25 53.7082 61.25 52.3333 61.25 49.5835V11.6668C61.25 8.91697 61.25 7.54205 60.3957 6.68776C59.5414 5.8335 58.1665 5.8335 55.4166 5.8335C52.6668 5.8335 51.2919 5.8335 50.4376 6.68776Z" fill="#6ABE61"/>
<path opacity="0.7" d="M29.1667 20.4168C29.1667 17.667 29.1667 16.2921 30.021 15.4378C30.8753 14.5835 32.2502 14.5835 35 14.5835C37.7499 14.5835 39.1248 14.5835 39.9791 15.4378C40.8334 16.2921 40.8334 17.667 40.8334 20.4168V49.5835C40.8334 52.3333 40.8334 53.7082 39.9791 54.5625C39.1248 55.4168 37.7499 55.4168 35 55.4168C32.2502 55.4168 30.8753 55.4168 30.021 54.5625C29.1667 53.7082 29.1667 52.3333 29.1667 49.5835V20.4168Z" fill="#6ABE61"/>
<path d="M8.75 61.979C7.54189 61.979 6.5625 62.9584 6.5625 64.1665C6.5625 65.3746 7.54189 66.354 8.75 66.354H61.25C62.4581 66.354 63.4375 65.3746 63.4375 64.1665C63.4375 62.9584 62.4581 61.979 61.25 61.979H8.75Z" fill="#6ABE61"/>
</svg>
