<svg width="71" height="70" viewBox="0 0 71 70" fill="none" xmlns="http://www.w3.org/2000/svg">
<path opacity="0.5" d="M35.3334 64.1668C51.4416 64.1668 64.5001 51.1083 64.5001 35.0002C64.5001 18.8918 51.4416 5.8335 35.3334 5.8335C19.2251 5.8335 6.16675 18.8918 6.16675 35.0002C6.16675 51.1083 19.2251 64.1668 35.3334 64.1668Z" fill="#63B0FF"/>
<path d="M20.0209 35C20.0209 34.2574 20.0738 33.5271 20.176 32.8125H29.5001C30.7082 32.8125 31.6876 31.8331 31.6876 30.625C31.6876 29.4169 30.7082 28.4375 29.5001 28.4375H21.4945C23.9521 23.2642 29.225 19.6875 35.3334 19.6875C38.1261 19.6875 40.738 20.4331 42.9882 21.7347C44.0338 22.3397 45.372 21.9823 45.9769 20.9365C46.5818 19.8908 46.2245 18.5526 45.1786 17.9477C42.2806 16.2713 38.9157 15.3125 35.3334 15.3125C26.7614 15.3125 19.4688 20.7909 16.7662 28.4375H14.9167C13.7086 28.4375 12.7292 29.4169 12.7292 30.625C12.7292 31.8331 13.7086 32.8125 14.9167 32.8125H15.7661C15.6867 33.5309 15.6459 34.2606 15.6459 35C15.6459 35.7394 15.6867 36.4691 15.7661 37.1875H14.9167C13.7086 37.1875 12.7292 38.1669 12.7292 39.375C12.7292 40.5831 13.7086 41.5625 14.9167 41.5625H16.7662C19.4688 49.2091 26.7614 54.6875 35.3334 54.6875C38.9157 54.6875 42.2806 53.7288 45.1786 52.0523C46.2245 51.4474 46.5818 50.1092 45.9769 49.0636C45.372 48.0177 44.0338 47.6604 42.9882 48.2653C40.738 49.567 38.1261 50.3125 35.3334 50.3125C29.225 50.3125 23.9521 46.7358 21.4945 41.5625H29.5001C30.7082 41.5625 31.6876 40.5831 31.6876 39.375C31.6876 38.1669 30.7082 37.1875 29.5001 37.1875H20.176C20.0738 36.4729 20.0209 35.7426 20.0209 35Z" fill="#63B0FF"/>
</svg>
