<svg width="71" height="70" viewBox="0 0 71 70" fill="none" xmlns="http://www.w3.org/2000/svg">
<path fill-rule="evenodd" clip-rule="evenodd" d="M6.50012 61.9792C5.29201 61.9792 4.31262 62.9586 4.31262 64.1667C4.31262 65.3747 5.29201 66.3542 6.50012 66.3542H64.8335C66.0415 66.3542 67.021 65.3747 67.021 64.1667C67.021 62.9586 66.0415 61.9792 64.8335 61.9792H61.9168H54.6251H50.2501V46.6667C50.2501 41.167 50.2501 38.4172 48.5415 36.7086C46.833 35 44.0831 35 38.5835 35H32.7501C27.2504 35 24.5005 35 22.792 36.7086C21.0835 38.4172 21.0835 41.167 21.0835 46.6667V61.9792H16.7085H9.41679H6.50012ZM27.646 43.75C27.646 42.5419 28.6253 41.5625 29.8335 41.5625H41.5001C42.7082 41.5625 43.6876 42.5419 43.6876 43.75C43.6876 44.9581 42.7082 45.9375 41.5001 45.9375H29.8335C28.6253 45.9375 27.646 44.9581 27.646 43.75ZM27.646 52.5C27.646 51.2919 28.6253 50.3125 29.8335 50.3125H41.5001C42.7082 50.3125 43.6876 51.2919 43.6876 52.5C43.6876 53.7081 42.7082 54.6875 41.5001 54.6875H29.8335C28.6253 54.6875 27.646 53.7081 27.646 52.5Z" fill="#FF897D"/>
<g opacity="0.5">
<path d="M24.0001 13.125C26.7499 13.125 28.1249 13.125 28.9792 13.9793C29.8334 14.8336 29.8334 16.2085 29.8334 18.9583L29.8334 24.1863C30.2907 24.4085 30.6883 24.6887 31.0415 25.0419C32.2201 26.2205 32.5856 27.8946 32.699 30.625V35C27.2334 35 24.4952 35.0053 22.792 36.7086C21.0834 38.4172 21.0834 41.167 21.0834 46.6667V61.9792H9.41675V35C9.41675 29.5003 9.41675 26.7504 11.1253 25.0419C11.4785 24.6887 11.8761 24.4085 12.3334 24.1863V18.9583C12.3334 16.2085 12.3334 14.8336 13.1877 13.9793C14.042 13.125 15.4169 13.125 18.1667 13.125H18.8959V8.75C18.8959 7.54189 19.8753 6.5625 21.0834 6.5625C22.2915 6.5625 23.2709 7.54189 23.2709 8.75V13.125H24.0001Z" fill="#FF897D"/>
<path d="M60.8781 15.303C59.8392 13.804 58.0084 13.1174 54.3465 11.7443C47.1855 9.05886 43.6047 7.71611 41.094 9.45605C38.5834 11.196 38.5834 15.02 38.5834 22.6681V34.9999C44.083 34.9999 46.8329 34.9999 48.5415 36.7085C50.25 38.4171 50.25 41.1669 50.25 46.6666V61.9791H61.9167V22.6681C61.9167 18.7573 61.9167 16.8019 60.8781 15.303Z" fill="#FF897D"/>
</g>
</svg>
