<svg width="70" height="70" viewBox="0 0 70 70" fill="none" xmlns="http://www.w3.org/2000/svg">
<path opacity="0.4" d="M43.75 26.25C48.5825 26.25 52.5 22.3325 52.5 17.5C52.5 12.6675 48.5825 8.75 43.75 8.75C38.9175 8.75 35 12.6675 35 17.5C35 22.3325 38.9175 26.25 43.75 26.25Z" fill="#97A5FF"/>
<path opacity="0.4" d="M46.6667 58.3335C54.7209 58.3335 61.25 54.416 61.25 49.5835C61.25 44.751 54.7209 40.8335 46.6667 40.8335C38.6126 40.8335 32.0834 44.751 32.0834 49.5835C32.0834 54.416 38.6126 58.3335 46.6667 58.3335Z" fill="#97A5FF"/>
<path d="M26.2528 29.1668C32.6962 29.1668 37.9195 23.9435 37.9195 17.5002C37.9195 11.0568 32.6962 5.8335 26.2528 5.8335C19.8095 5.8335 14.5862 11.0568 14.5862 17.5002C14.5862 23.9435 19.8095 29.1668 26.2528 29.1668Z" fill="#97A5FF"/>
<path d="M26.2528 61.2528C37.5287 61.2528 46.6695 56.0294 46.6695 49.5861C46.6695 43.1428 37.5287 37.9194 26.2528 37.9194C14.977 37.9194 5.83618 43.1428 5.83618 49.5861C5.83618 56.0294 14.977 61.2528 26.2528 61.2528Z" fill="#97A5FF"/>
</svg>
